<svg width="481" height="416" viewBox="0 0 481 416" fill="none" xmlns="http://www.w3.org/2000/svg">
<path d="M0.000106812 185.853H227.957V416H0.000106812V185.853Z" fill="url(#paint0_linear)"/>
<path d="M3.09772 222.271H224.854V409.798H3.09772V222.271Z" fill="white"/>
<path d="M3.09772 188.18H224.854V222.277H3.09772V188.18Z" fill="#121212"/>
<path d="M207.795 213.747C203.085 213.747 199.266 209.931 199.266 205.223C199.266 200.515 203.085 196.699 207.795 196.699C212.506 196.699 216.325 200.515 216.325 205.223C216.325 209.931 212.506 213.747 207.795 213.747Z" fill="#FF5252"/>
<path d="M186.085 213.747C181.374 213.747 177.556 209.931 177.556 205.223C177.556 200.515 181.374 196.699 186.085 196.699C190.796 196.699 194.614 200.515 194.614 205.223C194.614 209.931 190.796 213.747 186.085 213.747Z" fill="#FFFF00"/>
<path d="M164.374 213.747C159.664 213.747 155.845 209.931 155.845 205.223C155.845 200.515 159.664 196.699 164.374 196.699C169.085 196.699 172.904 200.515 172.904 205.223C172.904 209.931 169.085 213.747 164.374 213.747Z" fill="#69F0AE"/>
<path d="M22.632 266.168H205.325V277.613H22.632V266.168Z" fill="#E0E0E0"/>
<path d="M22.632 295.599H205.325V307.044H22.632V295.599Z" fill="#E0E0E0"/>
<path d="M22.632 325.03H205.325V336.476H22.632V325.03Z" fill="#E0E0E0"/>
<path d="M22.632 354.461H205.325V365.907H22.632V354.461Z" fill="#E0E0E0"/>
<path d="M131.975 292.994C120.229 292.994 110.706 283.477 110.706 271.738C110.706 259.998 120.229 250.482 131.975 250.482C143.721 250.482 153.244 259.998 153.244 271.738C153.244 283.477 143.721 292.994 131.975 292.994Z" fill="url(#paint1_linear)"/>
<path d="M79.6214 322.425C67.875 322.425 58.3527 312.908 58.3527 301.169C58.3527 289.43 67.875 279.913 79.6214 279.913C91.3678 279.913 100.89 289.43 100.89 301.169C100.89 312.908 91.3678 322.425 79.6214 322.425Z" fill="url(#paint2_linear)"/>
<path d="M105.798 351.856C94.0518 351.856 84.5295 342.34 84.5295 330.6C84.5295 318.861 94.0518 309.344 105.798 309.344C117.545 309.344 127.067 318.861 127.067 330.6C127.067 342.34 117.545 351.856 105.798 351.856Z" fill="url(#paint3_linear)"/>
<path d="M32.721 381.287C20.9747 381.287 11.4523 371.771 11.4523 360.032C11.4523 348.292 20.9747 338.776 32.721 338.776C44.4674 338.776 53.9897 348.292 53.9897 360.032C53.9897 371.771 44.4674 381.287 32.721 381.287Z" fill="url(#paint4_linear)"/>
<path d="M131.975 289.724C122.036 289.724 113.978 281.671 113.978 271.738C113.978 261.804 122.036 253.752 131.975 253.752C141.914 253.752 149.972 261.804 149.972 271.738C149.972 281.671 141.914 289.724 131.975 289.724Z" fill="#6C63FF"/>
<path d="M79.6213 319.155C69.6821 319.155 61.6247 311.102 61.6247 301.169C61.6247 291.236 69.6821 283.183 79.6213 283.183C89.5606 283.183 97.6179 291.236 97.6179 301.169C97.6179 311.102 89.5606 319.155 79.6213 319.155Z" fill="#6C63FF"/>
<path d="M105.798 348.586C95.8591 348.586 87.8017 340.534 87.8017 330.6C87.8017 320.667 95.8591 312.615 105.798 312.615C115.738 312.615 123.795 320.667 123.795 330.6C123.795 340.534 115.738 348.586 105.798 348.586Z" fill="#6C63FF"/>
<path d="M32.7212 378.017C22.7819 378.017 14.7246 369.965 14.7246 360.032C14.7246 350.098 22.7819 342.046 32.7212 342.046C42.6604 342.046 50.7178 350.098 50.7178 360.032C50.7178 369.965 42.6604 378.017 32.7212 378.017Z" fill="#69F0AE"/>
<path d="M253.043 0H481V230.147H253.043V0Z" fill="url(#paint5_linear)"/>
<path d="M256.141 36.4185H477.897V223.945H256.141V36.4185Z" fill="white"/>
<path d="M256.141 2.32724H477.897V36.4239H256.141V2.32724Z" fill="#121212"/>
<path d="M460.838 27.8943C456.128 27.8943 452.309 24.0779 452.309 19.3701C452.309 14.6623 456.128 10.8459 460.838 10.8459C465.549 10.8459 469.368 14.6623 469.368 19.3701C469.368 24.0779 465.549 27.8943 460.838 27.8943Z" fill="#FF5252"/>
<path d="M439.128 27.8943C434.417 27.8943 430.599 24.0779 430.599 19.3701C430.599 14.6623 434.417 10.8459 439.128 10.8459C443.839 10.8459 447.657 14.6623 447.657 19.3701C447.657 24.0779 443.839 27.8943 439.128 27.8943Z" fill="#FFFF00"/>
<path d="M417.417 27.8943C412.707 27.8943 408.888 24.0779 408.888 19.3701C408.888 14.6623 412.707 10.8459 417.417 10.8459C422.128 10.8459 425.947 14.6623 425.947 19.3701C425.947 24.0779 422.128 27.8943 417.417 27.8943Z" fill="#69F0AE"/>
<path d="M408.528 81.3665H429.393V179.002H408.528V81.3665Z" fill="#E0E0E0"/>
<path d="M373.904 81.3665H394.769V179.002H373.904V81.3665Z" fill="#E0E0E0"/>
<path d="M339.285 81.3665H360.15V179.002H339.285V81.3665Z" fill="#E0E0E0"/>
<path d="M304.666 81.3665H325.531V179.002H304.666V81.3665Z" fill="#E0E0E0"/>
<path d="M408.528 130.184H429.393V179.002H408.528V130.184Z" fill="#2196F3"/>
<g opacity="0.4">
<path opacity="0.4" d="M408.528 109.8H429.393V131.127H408.528V109.8Z" fill="#2196F3"/>
</g>
<path opacity="0.4" d="M373.713 119.905H394.578V141.232H373.713V119.905Z" fill="#69F0AE"/>
<path opacity="0.4" d="M304.655 121.022H325.52V142.349H304.655V121.022Z" fill="#FFFF00"/>
<path d="M373.904 140.78H394.769V178.997H373.904V140.78Z" fill="#69F0AE"/>
<path d="M339.285 123.072H360.15V179.002H339.285V123.072Z" fill="#6C63FF"/>
<path opacity="0.4" d="M339.285 103.642H360.15V123.072H339.285V103.642Z" fill="#6C63FF"/>
<path d="M304.666 142.507H325.531V179.002H304.666V142.507Z" fill="#FFFF00"/>
<path d="M146.154 87.449H374.111V317.596H146.154V87.449Z" fill="url(#paint6_linear)"/>
<path d="M149.252 123.867H371.008V311.394H149.252V123.867Z" fill="white"/>
<path d="M149.252 89.7708H371.008V123.867H149.252V89.7708Z" fill="#121212"/>
<path d="M353.949 115.343C349.239 115.343 345.42 111.527 345.42 106.819C345.42 102.111 349.239 98.295 353.949 98.295C358.66 98.295 362.479 102.111 362.479 106.819C362.479 111.527 358.66 115.343 353.949 115.343Z" fill="#FF5252"/>
<path d="M332.239 115.343C327.528 115.343 323.71 111.527 323.71 106.819C323.71 102.111 327.528 98.295 332.239 98.295C336.95 98.295 340.768 102.111 340.768 106.819C340.768 111.527 336.95 115.343 332.239 115.343Z" fill="#FFFF00"/>
<path d="M310.529 115.343C305.818 115.343 301.999 111.527 301.999 106.819C301.999 102.111 305.818 98.295 310.529 98.295C315.239 98.295 319.058 102.111 319.058 106.819C319.058 111.527 315.239 115.343 310.529 115.343Z" fill="#69F0AE"/>
<path d="M260.133 153.31H260.52V281.935H260.133C243.065 281.935 226.697 275.159 214.629 263.098C202.561 251.037 195.781 234.679 195.781 217.622C195.781 200.566 202.561 184.207 214.629 172.146C226.697 160.085 243.065 153.31 260.133 153.31Z" fill="#2196F3"/>
<path d="M260.52 153.321C277.456 153.422 293.669 160.192 305.643 172.162C317.617 184.132 324.387 200.337 324.484 217.263H260.52V153.321Z" fill="#69F0AE"/>
<path d="M327.969 217.928C327.969 218.064 327.969 218.195 327.969 218.331C327.968 236.059 320.948 253.067 308.443 265.64C295.937 278.214 278.962 285.332 261.223 285.44V217.928H327.969Z" fill="url(#paint7_linear)"/>
<path d="M326.027 218.789C326.027 218.92 326.027 219.045 326.027 219.176C326.028 236.167 319.3 252.467 307.314 264.517C295.329 276.567 279.058 283.388 262.058 283.488V218.789H326.027Z" fill="#6C63FF"/>
<defs>
<linearGradient id="paint0_linear" x1="113.979" y1="416" x2="113.979" y2="185.853" gradientUnits="userSpaceOnUse">
<stop stop-color="#808080" stop-opacity="0.25"/>
<stop offset="0.54" stop-color="#808080" stop-opacity="0.12"/>
<stop offset="1" stop-color="#808080" stop-opacity="0.1"/>
</linearGradient>
<linearGradient id="paint1_linear" x1="-27070.7" y1="23104" x2="-27070.7" y2="19788.1" gradientUnits="userSpaceOnUse">
<stop stop-color="#808080" stop-opacity="0.25"/>
<stop offset="0.54" stop-color="#808080" stop-opacity="0.12"/>
<stop offset="1" stop-color="#808080" stop-opacity="0.1"/>
</linearGradient>
<linearGradient id="paint2_linear" x1="-31206.7" y1="25429.1" x2="-31206.7" y2="22113.1" gradientUnits="userSpaceOnUse">
<stop stop-color="#808080" stop-opacity="0.25"/>
<stop offset="0.54" stop-color="#808080" stop-opacity="0.12"/>
<stop offset="1" stop-color="#808080" stop-opacity="0.1"/>
</linearGradient>
<linearGradient id="paint3_linear" x1="-29138.7" y1="27754.1" x2="-29138.7" y2="24438.2" gradientUnits="userSpaceOnUse">
<stop stop-color="#808080" stop-opacity="0.25"/>
<stop offset="0.54" stop-color="#808080" stop-opacity="0.12"/>
<stop offset="1" stop-color="#808080" stop-opacity="0.1"/>
</linearGradient>
<linearGradient id="paint4_linear" x1="-34911.8" y1="30079.2" x2="-34911.8" y2="26763.3" gradientUnits="userSpaceOnUse">
<stop stop-color="#808080" stop-opacity="0.25"/>
<stop offset="0.54" stop-color="#808080" stop-opacity="0.12"/>
<stop offset="1" stop-color="#808080" stop-opacity="0.1"/>
</linearGradient>
<linearGradient id="paint5_linear" x1="-47162" y1="97184.2" x2="-47162" y2="0" gradientUnits="userSpaceOnUse">
<stop stop-color="#808080" stop-opacity="0.25"/>
<stop offset="0.54" stop-color="#808080" stop-opacity="0.12"/>
<stop offset="1" stop-color="#808080" stop-opacity="0.1"/>
</linearGradient>
<linearGradient id="paint6_linear" x1="-91948.4" y1="134196" x2="-91948.4" y2="37014.5" gradientUnits="userSpaceOnUse">
<stop stop-color="#808080" stop-opacity="0.25"/>
<stop offset="0.54" stop-color="#808080" stop-opacity="0.12"/>
<stop offset="1" stop-color="#808080" stop-opacity="0.1"/>
</linearGradient>
<linearGradient id="paint7_linear" x1="-33098.2" y1="40191.1" x2="-33098.2" y2="31828.4" gradientUnits="userSpaceOnUse">
<stop stop-color="#808080" stop-opacity="0.25"/>
<stop offset="0.54" stop-color="#808080" stop-opacity="0.12"/>
<stop offset="1" stop-color="#808080" stop-opacity="0.1"/>
</linearGradient>
</defs>
</svg>
